<?xml version="1.0" encoding="utf-8"?>
<!-- Generator: Adobe Illustrator 16.0.0, SVG Export Plug-In . SVG Version: 6.00 Build 0)  -->
<!DOCTYPE svg PUBLIC "-//W3C//DTD SVG 1.1//EN" "http://www.w3.org/Graphics/SVG/1.1/DTD/svg11.dtd">
<svg version="1.1" id="Layer_1" xmlns="http://www.w3.org/2000/svg" xmlns:xlink="http://www.w3.org/1999/xlink" x="0px" y="0px"
	 width="473px" height="167px" viewBox="0 0 473 167" enable-background="new 0 0 473 167" xml:space="preserve">
<g>
	<defs>
		<rect id="SVGID_1_" x="-78" y="-324" width="800" height="600"/>
	</defs>
	<clipPath id="SVGID_2_">
		<use xlink:href="#SVGID_1_"  overflow="visible"/>
	</clipPath>
	<path clip-path="url(#SVGID_2_)" fill="#1C75BC" d="M110.455,154.563c-4.019,1.589-7.746,2.993-11.629,3.962
		c-4.96,1.236-9.983,1.906-15.094,2.22c-10.877,0.666-21.321-1.148-31.407-5.108c-11.282-4.43-20.894-11.274-28.87-20.408
		c-5.609-6.424-10.012-13.586-13.246-21.477c-1.626-3.967-2.413-8.139-3.068-12.342C5.45,90.577,6.783,80.078,10.773,69.91
		c3.03-7.723,7.455-14.532,13.284-20.488c6.744-6.892,14.632-11.896,23.678-15.1c5.973-2.115,12.127-3.283,18.495-3.441
		c9.348-0.233,18.293,1.429,26.849,5.197c0.364,0.16,0.716,0.35,1.063,0.546c0.059,0.031,0.062,0.167,0.1,0.287
		c-0.604,0.358-1.158-0.009-1.698-0.146c-4.535-1.151-9.133-1.709-13.813-1.549c-11.31,0.382-21.451,3.977-30.283,11.101
		c-6.339,5.112-11.075,11.438-14.5,18.841c-3.361,7.266-5.311,14.824-5.852,22.802c-1.113,16.419,3.282,31.148,13.38,44.143
		c6.795,8.745,15.32,15.271,25.532,19.578c7.497,3.162,15.29,4.871,23.45,5.063c6.146,0.145,12.153-0.575,18.084-2.114
		C109.046,154.498,109.545,154.139,110.455,154.563"/>
	<path clip-path="url(#SVGID_2_)" fill="#1C75BC" d="M30.662,97.365c0.692,0.374,0.603,1.005,0.737,1.49
		c3.119,11.247,9.389,20.325,18.723,27.31c10.967,8.208,23.36,11.021,36.814,9.583c15.754-1.682,29.07-8.446,39.97-19.857
		c5.424-5.681,9.544-12.279,12.564-19.57c3.703-8.938,5.289-18.248,4.743-27.851c-0.903-15.891-6.925-29.642-17.924-41.184
		c-0.371-0.39-0.709-0.812-0.979-1.315c1.7,0.621,2.948,1.894,4.227,3.051c12.911,11.676,21.323,25.937,24.557,43.126
		c1.556,8.275,1.616,16.578,0.362,24.899c-2.038,13.525-7.36,25.644-16.051,36.156c-5.515,6.669-12.454,11.682-20.34,15.303
		c-7.304,3.354-14.952,5.254-23.014,5.622c-11.146,0.507-21.688-1.671-31.538-6.876c-15.71-8.304-25.935-21.139-30.99-38.128
		c-0.957-3.214-1.488-6.526-1.945-9.847C30.493,98.663,30.382,98.028,30.662,97.365"/>
	<path clip-path="url(#SVGID_2_)" fill="#1C75BC" d="M114.524,122.496c1.539-1.747,3.282-3.307,4.757-5.118
		c5.06-6.21,8.548-13.246,10.142-21.021c2.708-13.212,0.582-25.758-6.47-37.346c-6.319-10.382-14.986-18.279-25.787-23.791
		c-7.752-3.954-16.009-6.091-24.716-6.721c-11.253-0.813-21.882,1.352-32.029,6.117c-5.325,2.502-10.167,5.767-14.587,9.648
		c-5.844,5.131-10.645,11.098-14.294,17.97c-2.091,3.938-3.836,8.026-5.021,12.339C6.286,75.418,6.03,76.257,5.784,77.1
		c-0.15-0.032-0.301-0.063-0.451-0.096c0.332-2.11,0.583-4.236,1.011-6.327c1.615-7.902,4.411-15.392,8.493-22.334
		c5.588-9.505,12.77-17.599,21.811-24.023c9.68-6.88,20.354-11.297,32.068-13.033c14.417-2.138,28.35-0.688,41.273,6.596
		c10.39,5.854,18.546,13.98,24.287,24.479c4.14,7.569,6.583,15.671,7.28,24.24c0.832,10.223-0.697,20.089-4.775,29.577
		c-3.043,7.078-7.217,13.352-12.528,18.875c-2.634,2.74-5.548,5.188-8.69,7.349c-0.236,0.163-0.515,0.265-0.774,0.395
		C114.7,122.695,114.612,122.596,114.524,122.496"/>
	<path clip-path="url(#SVGID_2_)" fill="#58595B" d="M232.712,37.56c6.779,6.778,10.168,14.922,10.168,24.429
		c0,9.535-3.389,17.664-10.168,24.386c-6.751,6.695-14.879,10.041-24.386,10.041c-9.535-0.028-17.664-3.375-24.386-10.041
		c-6.751-6.751-10.126-14.879-10.126-24.386c0-9.479,3.375-17.621,10.126-24.429c6.778-6.777,14.907-10.168,24.386-10.168
		S225.934,30.782,232.712,37.56 M193.686,47.264c-4.051,4.106-6.076,8.986-6.076,14.641c0,5.71,2.025,10.589,6.076,14.64
		c4.022,4.022,8.902,6.033,14.64,6.033c5.653,0,10.519-2.011,14.598-6.033c4.078-4.021,6.117-8.902,6.117-14.64
		c0-5.683-2.039-10.563-6.117-14.641c-4.051-4.051-8.916-6.075-14.598-6.075C202.56,41.188,197.68,43.213,193.686,47.264"/>
	<polygon clip-path="url(#SVGID_2_)" fill="#58595B" points="282.028,72.029 315.316,26.338 315.316,95.951 301.646,95.951 
		301.646,67.768 282.028,94.854 262.367,67.768 262.367,95.951 248.697,95.951 248.697,26.338 	"/>
	<polygon clip-path="url(#SVGID_2_)" fill="#58595B" points="364.757,27.771 364.757,41.398 337.418,41.398 337.418,55.11 
		357.922,55.11 357.922,68.739 337.418,68.739 337.418,82.451 364.757,82.451 364.757,96.036 323.748,96.036 323.748,27.771 	"/>
	<polygon clip-path="url(#SVGID_2_)" fill="#58595B" points="415.298,27.94 415.298,41.483 398.592,41.483 398.592,95.952 
		384.879,95.952 384.879,41.483 368.129,41.483 368.129,27.94 	"/>
	<path clip-path="url(#SVGID_2_)" fill="#58595B" d="M439.134,26.548l31.053,69.403h-14.81l-4.6-10.337h-23.289l-4.598,10.337
		h-14.768L439.134,26.548z M445.377,73.548l-6.2-14.387l-6.287,14.387H445.377z"/>
	<polygon clip-path="url(#SVGID_2_)" fill="#1C75BC" points="229.66,111.276 229.66,143.932 246.064,143.932 246.064,152.084 
		221.458,152.084 221.458,111.276 	"/>
	<path clip-path="url(#SVGID_2_)" fill="#1C75BC" d="M292.612,110.442l18.632,41.641h-8.885l-2.76-6.202h-13.973l-2.76,6.202h-8.86
		L292.612,110.442z M296.359,138.641l-3.721-8.632l-3.772,8.632H296.359z"/>
	<path clip-path="url(#SVGID_2_)" fill="#1C75BC" d="M361.741,128.085c0.997,0.498,2.37,1.34,3.139,2.076
		c2.48,2.515,3.721,5.536,3.721,9.063c0,3.544-1.24,6.564-3.721,9.063c-2.481,2.531-5.485,3.796-9.012,3.796h-15.163v-40.806h8.556
		h2.835c3.156,0,5.857,1.131,8.102,3.391c2.159,2.195,3.239,4.785,3.239,7.773C363.437,124.397,362.497,126.743,361.741,128.085
		 M352.096,119.25h-3.215v7.468c0.726-0.033,1.747-0.1,3.063-0.202c1.941-0.22,3.596-1.672,3.596-3.747
		C355.539,120.878,354.003,119.25,352.096,119.25 M360.602,139.224c0-2.712-2.209-4.844-4.733-5.013
		c-2.43-0.133-4.532-0.025-6.987-0.025v9.898h1.62h5.367C358.529,144.084,360.602,141.886,360.602,139.224"/>
	<path clip-path="url(#SVGID_2_)" fill="#1C75BC" d="M409.435,144.05c2.266,0,4.766-1.881,4.766-4.146c0-3.727-5-4.246-7.823-5.224
		c-4.975-1.694-9.369-5.779-9.369-11.337c0-6.882,5.582-12.427,12.464-12.427c6.275,0,11.474,4.654,12.316,10.706l-8.146,1.721
		c0-2.239-1.881-4.122-4.121-4.122c-2.276,0-4.158,1.883-4.158,4.146c0,3.676,4.653,4.654,7.487,5.495
		c5.148,1.485,9.691,5.41,9.691,11.09c0,6.882-6.176,12.439-13.045,12.439c-6.313,0-12.019-4.63-12.947-10.706l8.145-1.733
		c0,2.278,2.476,4.134,4.777,4.134L409.435,144.05z"/>
</g>
</svg>
